<svg width="157" height="43" xmlns="http://www.w3.org/2000/svg">
 <g>
  <title>background</title>
  <rect x="-1" y="-1" width="159" height="45" id="canvas_background" fill="none"/>
 </g>

 <g>
  <title>Layer 1</title>
  <text fill="#000000" stroke-width="0" x="7.13911" y="17.6281" id="svg_9" font-size="24" font-family="Helvetica, Arial, sans-serif" text-anchor="start" xml:space="preserve" transform="matrix(1,0,0,0.6979694366455078,0,6.875914543867111) " stroke="#000"/>
  <text fill="#000000" stroke-width="0" stroke-opacity="null" fill-opacity="null" x="11.37472" y="20.57461" id="svg_10" font-size="19" font-family="Helvetica, Arial, sans-serif" text-anchor="start" xml:space="preserve" transform="matrix(9.867080688476562,0,0,1,-100.72449469566345,0) " stroke="#000"/>
  <path fill="#0f0000" stroke="#000" stroke-width="0" stroke-opacity="null" d="m72.36453,11.6814c0.20483,0 0.37101,0.02064 0.37101,0.04605c0,0.02541 -0.16617,0.04603 -0.37101,0.04603c-0.20483,0 -0.37101,0.02064 -0.37101,0.04605c0,0.02541 0.16617,0.04603 0.37101,0.04603c0.40967,0 0.74217,-0.04125 0.74217,-0.09208c0,-0.05083 -0.3325,-0.09208 -0.74217,-0.09208l0,0zm0,0.03166c-0.06404,0 -0.11599,0.00644 -0.11599,0.01439c0,0.00795 0.05195,0.01439 0.11599,0.01439c0.06404,0 0.11599,-0.00644 0.11599,-0.01439c0,-0.00795 -0.05195,-0.01439 -0.11599,-0.01439zm0,0.09208c0.06401,0 0.11599,0.00645 0.11599,0.01439c0,0.00794 -0.05198,0.01439 -0.11599,0.01439c-0.06401,0 -0.11599,-0.00645 -0.11599,-0.01439c0,-0.00794 0.05198,-0.01439 0.11599,-0.01439zm0.72553,-0.0316c0,0.05079 -0.33185,0.09196 -0.74122,0.09196c-0.40936,0 -0.74122,-0.04117 -0.74122,-0.09196c0,-0.05079 0.33185,-0.09196 0.74122,-0.09196c0.40936,0 0.74122,0.04117 0.74122,0.09196z" id="svg_23"/>
  <path fill="#0f0000" stroke="#000" stroke-width="0" stroke-opacity="null" fill-opacity="null" d="m30.95311,19.92703c0.20483,0 0.37101,0.02064 0.37101,0.04605c0,0.02541 -0.16617,0.04603 -0.37101,0.04603c-0.20483,0 -0.37101,0.02064 -0.37101,0.04605c0,0.02541 0.16617,0.04603 0.37101,0.04603c0.40967,0 0.74217,-0.04125 0.74217,-0.09208c0,-0.05083 -0.3325,-0.09208 -0.74217,-0.09208l0,0zm0,0.03166c-0.06404,0 -0.11599,0.00644 -0.11599,0.01439c0,0.00795 0.05195,0.01439 0.11599,0.01439c0.06404,0 0.11599,-0.00644 0.11599,-0.01439c0,-0.00795 -0.05195,-0.01439 -0.11599,-0.01439zm0,0.09208c0.06401,0 0.11599,0.00645 0.11599,0.01439c0,0.00794 -0.05198,0.01439 -0.11599,0.01439c-0.06401,0 -0.11599,-0.00645 -0.11599,-0.01439c0,-0.00794 0.05198,-0.01439 0.11599,-0.01439zm0.72553,-0.0316c0,0.05079 -0.33185,0.09196 -0.74122,0.09196c-0.40936,0 -0.74122,-0.04117 -0.74122,-0.09196c0,-0.05079 0.33185,-0.09196 0.74122,-0.09196c0.40936,0 0.74122,0.04117 0.74122,0.09196z" id="svg_25"/>
  <path stroke="#000" fill="#320670" stroke-width="0" stroke-opacity="null" d="m42.89795,19.7807c-1.15944,-0.25884 -2.36619,-0.42926 -3.34607,-0.47539l-0.17281,-0.00768c0.03958,-0.11533 0.06951,-0.19349 0.07916,-0.20503c0.02124,-0.02307 0.03862,-0.12045 0.04055,-0.21527c0,-0.05253 0.01738,-0.22296 0.04441,-0.44849c0.26548,0.01282 0.61785,0.02307 1.00208,0.02691c1.48382,0.01538 3.03618,0.17426 4.10101,0.42414c0.63427,0.14864 0.84376,0.14351 0.37554,-0.00768c-0.47401,-0.15248 -1.87963,-0.37673 -2.99949,-0.47411c-0.75205,-0.06792 -1.8304,-0.09354 -2.46563,-0.07944c0.01834,-0.14608 0.03958,-0.30881 0.06179,-0.47539c0.08978,-0.64454 0.11971,-1.29291 0.12164,-2.58327c0.00193,-2.00152 -0.07916,-2.55252 -0.57055,-3.87618c-0.19984,-0.54075 -0.42574,-0.99948 -0.69895,-1.41464c0.23845,-0.93413 0.23266,-2.38081 -0.01448,-3.64938c-0.2037,-1.04049 -0.27514,-1.10711 -0.98567,-0.90722c-0.60241,0.17042 -1.08511,0.40236 -1.70393,0.81624c-0.29252,0.19605 -0.69605,0.50102 -0.98857,0.74064c-0.76266,-0.35623 -1.55139,-0.592 -2.39322,-0.71885c-0.85341,-0.12813 -2.94543,-0.05638 -3.68782,0.12557c-0.72598,0.17811 -1.37955,0.39595 -1.97134,0.65478c-0.29541,-0.24218 -0.72405,-0.56894 -1.03008,-0.77395c-0.62172,-0.41516 -1.10442,-0.64582 -1.70875,-0.81624c-0.7086,-0.20117 -0.78197,-0.13327 -0.98471,0.90722c-0.251,1.28523 -0.25293,2.75625 -0.00483,3.68781c0.02896,0.10635 0.04634,0.18196 0.0531,0.2409c-1.00594,1.68117 -1.33418,3.56224 -1.116,6.1878c0.05696,0.68426 0.14481,1.31214 0.26742,1.88748c-0.64199,-0.00512 -1.55526,0.02563 -2.21462,0.082c-1.12179,0.09866 -2.52741,0.32034 -3.00142,0.47283c-0.46725,0.1512 -0.25969,0.15633 0.37554,0.00897c1.06483,-0.24858 2.61816,-0.41004 4.10101,-0.42414c0.27997,-0.00128 0.54159,-0.00897 0.76653,-0.01666c0.06758,0.30369 0.14481,0.59328 0.23266,0.86877l-0.00676,0.00128c-0.97988,0.04485 -2.18566,0.21527 -3.3451,0.47411c-0.86982,0.19349 -2.1538,0.58046 -2.30344,0.69195c-0.15736,0.11661 -0.02896,0.09098 0.64489,-0.13583c1.22895,-0.4126 2.82669,-0.7291 4.80575,-0.94951l0.22108,-0.02563c0.42478,1.30957 1.07932,2.30906 2.00417,3.08813c0.56572,0.47796 1.47223,0.96873 1.92887,1.04561c0.1255,0.0205 0.49042,0.12045 0.81093,0.2204c0.32148,0.09995 0.94995,0.24986 1.39597,0.33572l0.01062,0c-0.00869,0.00768 -0.01641,0.01282 -0.02413,0.0205c-0.54062,0.37289 -0.89203,0.95335 -1.12855,1.86697c-0.10619,0.04229 -0.23845,0.09995 -0.38133,0.1653c-0.5107,0.23065 -0.70957,0.27806 -1.22702,0.28319c-0.53676,0.00512 -0.66419,-0.02563 -0.98471,-0.22552c-0.46629,-0.28831 -0.90072,-0.8188 -1.19034,-1.45181c-0.48366,-1.05842 -1.3197,-1.80675 -2.01672,-1.80675c-0.59565,0 -0.7086,0.32034 -0.27803,0.78805c0.64875,0.70347 1.13338,1.42105 1.33225,1.96948c0.11199,0.30753 0.28383,0.78293 0.38326,1.05586c0.10523,0.29087 0.33017,0.68554 0.54448,0.95847c0.50394,0.63813 0.9905,0.94309 1.71648,1.08661c0.48656,0.09482 0.60627,0.09482 1.18068,-0.00256c0.27707,-0.04485 0.5107,-0.09738 0.72019,-0.16274c0,0.31266 0,0.67272 0,1.09558c0,2.26292 -0.02027,2.99074 -0.08785,3.20345c-0.12743,0.40492 -0.41319,0.82136 -0.69123,1.00845c-0.27707,0.18708 -0.36299,0.39338 -0.24618,0.58302c0.06468,0.10251 0.18922,0.12045 0.60724,0.08458c0.79356,-0.06535 1.35445,-0.45489 1.64021,-1.14171c0.09171,-0.2204 0.11295,-0.66376 0.14191,-2.97024c0.03089,-2.50254 0.04441,-2.74344 0.16701,-3.10095c0.07434,-0.21271 0.18149,-0.44336 0.24135,-0.50614c0.1004,-0.1102 0.10716,0.10764 0.10716,3.10095c-0.00097,3.3034 -0.02607,3.70191 -0.27514,4.33747c-0.05599,0.1448 -0.16219,0.33316 -0.23652,0.42286c-0.13033,0.15761 -0.18536,0.56124 -0.09461,0.68298c0.14964,0.19733 0.89975,-0.11276 1.30908,-0.54075c0.69702,-0.73295 0.78004,-1.33904 0.78583,-5.71624l0.0029,-2.56788l0.21142,0.02691l0.21142,0.02563l0.03475,3.3585c0.03958,3.78136 0.04537,3.83645 0.53,4.56685c0.27514,0.4126 0.55221,0.64069 1.00305,0.8188c0.60337,0.2409 0.78487,-0.1307 0.3794,-0.77523c-0.44119,-0.70091 -0.46243,-0.96873 -0.43829,-5.11784c0.01641,-2.66015 0.01641,-2.66015 0.14578,-2.5051c0.27224,0.32804 0.32437,0.86621 0.32437,3.36107c0,3.09839 0.06661,3.3931 0.89106,3.93384c0.38519,0.24986 0.49332,0.28063 0.98664,0.28319c0.52518,0.00256 0.55703,-0.00768 0.57634,-0.18965c0.01641,-0.14736 -0.04827,-0.2473 -0.29348,-0.44592c-0.32148,-0.26268 -0.54448,-0.59841 -0.68447,-1.02126c-0.0531,-0.16274 -0.08882,-1.22884 -0.11295,-3.42385c-0.03475,-3.06634 -0.04248,-3.20602 -0.18632,-3.68653c-0.19405,-0.64582 -0.49042,-1.1558 -0.86596,-1.49409c-0.09751,-0.08458 -0.19501,-0.15504 -0.32148,-0.20759c0.15543,-0.0205 0.30603,-0.04229 0.45181,-0.07048c1.51761,-0.26781 2.31985,-0.49077 2.96377,-0.82136c1.36218,-0.69579 2.28317,-1.85159 2.78228,-3.49048c0.04441,-0.14608 0.08882,-0.28447 0.12647,-0.39595l0.38423,0.04229c1.98003,0.22168 3.57777,0.53819 4.80672,0.95207c0.67385,0.2268 0.80225,0.25372 0.64489,0.13455c-0.14674,-0.10892 -1.43072,-0.49462 -2.29958,-0.6881l-0.00002,0.00003zm-5.80591,-0.03973c-0.22494,0.65606 -0.85245,1.49922 -1.35928,1.82982c-0.50008,0.32804 -1.28398,0.5779 -2.17215,0.69707c-0.60724,0.082 -3.99385,0.10635 -4.55282,0.03331c-1.85067,-0.2409 -2.88751,-0.71373 -3.6521,-1.66067c-0.72405,-0.89953 -1.06194,-2.12069 -1.00305,-3.62375c0.03765,-0.94053 0.20853,-1.53125 0.65551,-2.24882c0.40643,-0.6535 0.8341,-1.05714 1.33804,-1.26216c0.42188,-0.1717 1.71648,-0.18708 3.45709,-0.03845c0.76942,0.06535 1.40562,0.06535 2.17408,0c1.82074,-0.15248 3.03618,-0.13583 3.48509,0.04869c0.70571,0.28959 1.34866,1.06868 1.73482,2.10659c0.17377,0.46386 0.20756,0.6612 0.23266,1.37749c0.03475,0.98666 -0.09364,2.03483 -0.33789,2.74088zm-9.18094,-4.23625c-1.03587,-0.2409 -1.62766,2.11299 -0.83314,3.31494c0.37747,0.57022 0.71246,0.66376 1.13145,0.31778c0.38809,-0.32162 0.59855,-0.9226 0.59855,-1.70167c0,-1.0392 -0.35623,-1.8029 -0.89685,-1.93105l-0.00001,0zm6.28764,0.14095c-1.03587,-0.2409 -1.62863,2.11043 -0.8341,3.31366c0.37844,0.57022 0.71246,0.66504 1.13241,0.3165c0.38712,-0.32034 0.59855,-0.9226 0.59855,-1.70167c0,-1.03535 -0.35623,-1.80162 -0.89685,-1.92848l-0.00001,0zm-2.78614,4.62836c-0.0222,0.09482 -0.13033,0.23578 -0.23942,0.31138c-0.2761,0.18836 -0.47498,0.12301 -0.76653,-0.22937c-0.18053,-0.21655 -0.26259,-0.3306 -0.31762,-0.10379c-0.05117,0.21015 0.27031,0.63172 0.51842,0.76114c0.22783,0.12045 0.39099,0.12429 0.63813,-0.01282c0.24521,-0.13583 0.45953,-0.50102 0.45953,-0.73808c0,-0.2204 -0.23845,-0.21015 -0.29252,0.01153l0.00001,0.00001zm-0.30603,-0.7368c0.15736,-0.18452 0.19308,-0.56381 0.04248,-0.76499s-0.45663,-0.17042 -0.57634,0.0551c-0.13902,0.26396 -0.06468,0.46514 0.03475,0.67913c0.15446,0.1589 0.36202,0.19093 0.49911,0.03075l0,0.00001z" id="svg_29"/>
  <path fill="#509b04" stroke-width="0" stroke-opacity="null" d="m56.98285,3.03509c-7.93322,0 -14.36425,3.79289 -14.36425,8.47092c0,1.59853 0.76028,3.09243 2.06833,4.3684l-2.06833,3.5658l5.75901,-1.16155c2.39983,1.06119 5.37327,1.69888 8.60524,1.69888c7.93321,0 14.36426,-3.79291 14.36426,-8.47153s-6.43105,-8.47092 -14.36426,-8.47092l0,0zm-2.35582,11.72399l-2.39887,1.88474l-6.59718,-5.1883l6.5962,-5.18951l2.39985,1.88905l-4.19735,3.30046l4.19735,3.30355l0,0.00001zm7.25512,1.88229l-2.39788,-1.88721l4.1985,-3.29984l-4.1985,-3.3011l2.39788,-1.88721l6.59719,5.1846l-6.59719,5.19075l0,0.00001z" id="svg_33" stroke="#000"/>
  <path fill="#2e5606" stroke="#000" stroke-width="0" stroke-dasharray="5,2,2,2,2,2" stroke-opacity="null" fill-opacity="null" d="m154.81614,-11.56876c-0.38522,0 -0.6975,0.23422 -0.6975,0.52311c0,0.09871 0.03692,0.19097 0.10043,0.26976l-0.10043,0.2202l0.27965,-0.07173c0.11653,0.06553 0.26092,0.10491 0.41785,0.10491c0.38522,0 0.6975,-0.23422 0.6975,-0.52314s-0.31228,-0.52311 -0.6975,-0.52311l0,0zm-0.11439,0.72399l-0.11648,0.11639l-0.32035,-0.32039l0.3203,-0.32047l0.11653,0.11665l-0.20381,0.20381l0.20381,0.204l0,0.00001zm0.35229,0.11624l-0.11644,-0.11654l0.20387,-0.20378l-0.20387,-0.20385l0.11644,-0.11654l0.32035,0.32017l-0.32035,0.32055l0,-0.00001z" id="svg_35"/>
  <path fill="#2e5606" stroke="#000" stroke-width="0" stroke-dasharray="5,2,2,2,2,2" stroke-opacity="null" fill-opacity="null" d="m70.8939,27.46058c-0.38522,0 -0.6975,0.23422 -0.6975,0.52311c0,0.09871 0.03692,0.19097 0.10043,0.26976l-0.10043,0.2202l0.27965,-0.07173c0.11653,0.06553 0.26092,0.10491 0.41785,0.10491c0.38522,0 0.6975,-0.23422 0.6975,-0.52314s-0.31228,-0.52311 -0.6975,-0.52311l0,0zm-0.11439,0.72399l-0.11648,0.11639l-0.32035,-0.32039l0.3203,-0.32047l0.11653,0.11665l-0.20381,0.20381l0.20381,0.204l0,0.00001zm0.35229,0.11624l-0.11644,-0.11654l0.20387,-0.20378l-0.20387,-0.20385l0.11644,-0.11654l0.32035,0.32017l-0.32035,0.32055l0,-0.00001z" id="svg_36"/>
  <path fill="#2e5606" stroke="#000" stroke-width="0" stroke-dasharray="5,2,2,2,2,2" stroke-opacity="null" fill-opacity="null" d="m76.9407,18.482c-0.38522,0 -0.6975,0.23422 -0.6975,0.52311c0,0.09871 0.03692,0.19097 0.10043,0.26976l-0.10043,0.2202l0.27965,-0.07173c0.11653,0.06553 0.26092,0.10491 0.41785,0.10491c0.38522,0 0.6975,-0.23422 0.6975,-0.52314s-0.31228,-0.52311 -0.6975,-0.52311l0,0zm-0.11439,0.72399l-0.11648,0.11639l-0.32035,-0.32039l0.3203,-0.32047l0.11653,0.11665l-0.20381,0.20381l0.20381,0.204l0,0.00001zm0.35229,0.11624l-0.11644,-0.11654l0.20387,-0.20378l-0.20387,-0.20385l0.11644,-0.11654l0.32035,0.32017l-0.32035,0.32055l0,-0.00001z" id="svg_37"/>
  <path fill="#2e5606" stroke="#000" stroke-width="0" stroke-dasharray="5,2,2,2,2,2" stroke-opacity="null" fill-opacity="null" d="m142.35608,23.61262c-0.38522,0 -0.6975,0.23422 -0.6975,0.52311c0,0.09871 0.03692,0.19097 0.10043,0.26976l-0.10043,0.2202l0.27965,-0.07173c0.11653,0.06553 0.26092,0.10491 0.41785,0.10491c0.38522,0 0.6975,-0.23422 0.6975,-0.52314s-0.31228,-0.52311 -0.6975,-0.52311l0,0zm-0.11439,0.72399l-0.11648,0.11639l-0.32035,-0.32039l0.3203,-0.32047l0.11653,0.11665l-0.20381,0.20381l0.20381,0.204l0,0.00001zm0.35229,0.11624l-0.11644,-0.11654l0.20387,-0.20378l-0.20387,-0.20385l0.11644,-0.11654l0.32035,0.32017l-0.32035,0.32055l0,-0.00001z" id="svg_38"/>
  <text stroke="#000" transform="matrix(1,0,0,1.7020879983901978,0,-7.097670858725905) " xml:space="preserve" text-anchor="start" font-family="'Simonetta', serif" font-size="12" id="svg_1" y="21.86639" x="75.14751" fill-opacity="null" stroke-opacity="null" stroke-width="0" fill="#000707">&lt;CODE /&gt;</text>
 </g>
</svg>