<svg width="157" height="43" xmlns="http://www.w3.org/2000/svg">
 <g>
  <title>background</title>
  <rect x="-1" y="-1" width="159" height="45" id="canvas_background" fill="none"/>
 </g>

 <g>
  <title>Layer 1</title>
  <text fill="#000000" stroke-width="0" x="7.13911" y="17.6281" id="svg_9" font-size="24" font-family="Helvetica, Arial, sans-serif" text-anchor="start" xml:space="preserve" transform="matrix(1,0,0,0.6979694366455078,0,6.875914543867111) " stroke="#000"/>
  <text fill="#000000" stroke-width="0" stroke-opacity="null" fill-opacity="null" x="11.37472" y="20.57461" id="svg_10" font-size="19" font-family="Helvetica, Arial, sans-serif" text-anchor="start" xml:space="preserve" transform="matrix(9.867080688476562,0,0,1,-100.72449469566345,0) " stroke="#000"/>
  <path fill="#0f0000" stroke="#000" stroke-width="0" stroke-opacity="null" d="m72.36453,11.6814c0.20483,0 0.37101,0.02064 0.37101,0.04605c0,0.02541 -0.16617,0.04603 -0.37101,0.04603c-0.20483,0 -0.37101,0.02064 -0.37101,0.04605c0,0.02541 0.16617,0.04603 0.37101,0.04603c0.40967,0 0.74217,-0.04125 0.74217,-0.09208c0,-0.05083 -0.3325,-0.09208 -0.74217,-0.09208l0,0zm0,0.03166c-0.06404,0 -0.11599,0.00644 -0.11599,0.01439c0,0.00795 0.05195,0.01439 0.11599,0.01439c0.06404,0 0.11599,-0.00644 0.11599,-0.01439c0,-0.00795 -0.05195,-0.01439 -0.11599,-0.01439zm0,0.09208c0.06401,0 0.11599,0.00645 0.11599,0.01439c0,0.00794 -0.05198,0.01439 -0.11599,0.01439c-0.06401,0 -0.11599,-0.00645 -0.11599,-0.01439c0,-0.00794 0.05198,-0.01439 0.11599,-0.01439zm0.72553,-0.0316c0,0.05079 -0.33185,0.09196 -0.74122,0.09196c-0.40936,0 -0.74122,-0.04117 -0.74122,-0.09196c0,-0.05079 0.33185,-0.09196 0.74122,-0.09196c0.40936,0 0.74122,0.04117 0.74122,0.09196z" id="svg_23"/>
  <path fill="#0f0000" stroke="#000" stroke-width="0" stroke-opacity="null" fill-opacity="null" d="m30.95311,19.92703c0.20483,0 0.37101,0.02064 0.37101,0.04605c0,0.02541 -0.16617,0.04603 -0.37101,0.04603c-0.20483,0 -0.37101,0.02064 -0.37101,0.04605c0,0.02541 0.16617,0.04603 0.37101,0.04603c0.40967,0 0.74217,-0.04125 0.74217,-0.09208c0,-0.05083 -0.3325,-0.09208 -0.74217,-0.09208l0,0zm0,0.03166c-0.06404,0 -0.11599,0.00644 -0.11599,0.01439c0,0.00795 0.05195,0.01439 0.11599,0.01439c0.06404,0 0.11599,-0.00644 0.11599,-0.01439c0,-0.00795 -0.05195,-0.01439 -0.11599,-0.01439zm0,0.09208c0.06401,0 0.11599,0.00645 0.11599,0.01439c0,0.00794 -0.05198,0.01439 -0.11599,0.01439c-0.06401,0 -0.11599,-0.00645 -0.11599,-0.01439c0,-0.00794 0.05198,-0.01439 0.11599,-0.01439zm0.72553,-0.0316c0,0.05079 -0.33185,0.09196 -0.74122,0.09196c-0.40936,0 -0.74122,-0.04117 -0.74122,-0.09196c0,-0.05079 0.33185,-0.09196 0.74122,-0.09196c0.40936,0 0.74122,0.04117 0.74122,0.09196z" id="svg_25"/>
  <text fill="#08dddd" stroke-width="0" stroke-opacity="null" x="94.12467" y="21.93526" id="svg_28" font-size="12" font-family="'Simonetta', serif" text-anchor="start" xml:space="preserve" font-weight="bold" font-style="italic" transform="matrix(0.8684739920249579,0,0,1.7685756646456212,-26.01528295707441,-13.140710513842947) " stroke="#000">Lizandro J. Ramírez</text>
  <path fill="#00e2e2" stroke-width="0" stroke-opacity="null" d="m26.80599,21.10974c-1.15944,-0.22433 -2.36619,-0.37203 -3.34607,-0.41201l-0.17281,-0.00666c0.03958,-0.09995 0.06951,-0.16769 0.07916,-0.17769c0.02124,-0.01999 0.03862,-0.10439 0.04055,-0.18657c0,-0.04553 0.01738,-0.19323 0.04441,-0.38869c0.26548,0.01111 0.61785,0.01999 1.00208,0.02332c1.48382,0.01333 3.03618,0.15103 4.10101,0.36759c0.63427,0.12882 0.84376,0.12438 0.37554,-0.00666c-0.47401,-0.13215 -1.87963,-0.3265 -2.99949,-0.4109c-0.75205,-0.05886 -1.8304,-0.08107 -2.46563,-0.06885c0.01834,-0.1266 0.03958,-0.26764 0.06179,-0.41201c0.08978,-0.5586 0.11971,-1.12053 0.12164,-2.23884c0.00193,-1.73466 -0.07916,-2.21219 -0.57055,-3.35937c-0.19984,-0.46865 -0.42574,-0.86622 -0.69895,-1.22603c0.23845,-0.80958 0.23266,-2.06338 -0.01448,-3.16281c-0.2037,-0.90176 -0.27514,-0.9595 -0.98567,-0.78626c-0.60241,0.1477 -1.08511,0.34871 -1.70393,0.70741c-0.29252,0.16991 -0.69605,0.43422 -0.98857,0.64189c-0.76266,-0.30873 -1.55139,-0.51307 -2.39322,-0.62301c-0.85341,-0.11105 -2.94543,-0.04886 -3.68782,0.10883c-0.72598,0.15436 -1.37955,0.34316 -1.97134,0.56748c-0.29541,-0.20989 -0.72405,-0.49308 -1.03008,-0.67076c-0.62172,-0.35981 -1.10442,-0.55971 -1.70875,-0.70741c-0.7086,-0.17435 -0.78197,-0.1155 -0.98471,0.78626c-0.251,1.11387 -0.25293,2.38876 -0.00483,3.19612c0.02896,0.09217 0.04634,0.1577 0.0531,0.20878c-1.00594,1.45702 -1.33418,3.08729 -1.116,5.36278c0.05696,0.59303 0.14481,1.13719 0.26742,1.63582c-0.64199,-0.00444 -1.55526,0.02221 -2.21462,0.07107c-1.12179,0.08551 -2.52741,0.27763 -3.00142,0.40979c-0.46725,0.13104 -0.25969,0.13549 0.37554,0.00777c1.06483,-0.21544 2.61816,-0.35537 4.10101,-0.36759c0.27997,-0.00111 0.54159,-0.00777 0.76653,-0.01444c0.06758,0.2632 0.14481,0.51418 0.23266,0.75294l-0.00676,0.00111c-0.97988,0.03887 -2.18566,0.18657 -3.3451,0.4109c-0.86982,0.16769 -2.1538,0.50307 -2.30344,0.59969c-0.15736,0.10106 -0.02896,0.07885 0.64489,-0.11772c1.22895,-0.35759 2.82669,-0.63189 4.80575,-0.82291l0.22108,-0.02221c0.42478,1.13497 1.07932,2.00119 2.00417,2.67639c0.56572,0.41423 1.47223,0.83957 1.92887,0.9062c0.1255,0.01777 0.49042,0.10439 0.81093,0.19101c0.32148,0.08662 0.94995,0.21655 1.39597,0.29096l0.01062,0c-0.00869,0.00666 -0.01641,0.01111 -0.02413,0.01777c-0.54062,0.32317 -0.89203,0.82624 -1.12855,1.61805c-0.10619,0.03665 -0.23845,0.08662 -0.38133,0.14326c-0.5107,0.1999 -0.70957,0.24099 -1.22702,0.24543c-0.53676,0.00444 -0.66419,-0.02221 -0.98471,-0.19545c-0.46629,-0.24987 -0.90072,-0.70963 -1.19034,-1.25824c-0.48366,-0.9173 -1.3197,-1.56586 -2.01672,-1.56586c-0.59565,0 -0.7086,0.27763 -0.27803,0.68298c0.64875,0.60968 1.13338,1.23158 1.33225,1.70689c0.11199,0.26653 0.28383,0.67854 0.38326,0.91508c0.10523,0.25209 0.33017,0.59414 0.54448,0.83068c0.50394,0.55305 0.9905,0.81735 1.71648,0.94173c0.48656,0.08218 0.60627,0.08218 1.18068,-0.00222c0.27707,-0.03887 0.5107,-0.0844 0.72019,-0.14104c0,0.27097 0,0.58303 0,0.94951c0,1.96121 -0.02027,2.59199 -0.08785,2.77634c-0.12743,0.35093 -0.41319,0.71185 -0.69123,0.87399c-0.27707,0.16214 -0.36299,0.34093 -0.24618,0.50529c0.06468,0.08884 0.18922,0.10439 0.60724,0.0733c0.79356,-0.05664 1.35445,-0.39424 1.64021,-0.98949c0.09171,-0.19101 0.11295,-0.57526 0.14191,-2.57422c0.03089,-2.16888 0.04441,-2.37766 0.16701,-2.6875c0.07434,-0.18435 0.18149,-0.38425 0.24135,-0.43866c0.1004,-0.09551 0.10716,0.09329 0.10716,2.6875c-0.00097,2.86296 -0.02607,3.20834 -0.27514,3.75916c-0.05599,0.12549 -0.16219,0.28874 -0.23652,0.36648c-0.13033,0.1366 -0.18536,0.48641 -0.09461,0.59192c0.14964,0.17102 0.89975,-0.09773 1.30908,-0.46865c0.69702,-0.63523 0.78004,-1.16051 0.78583,-4.9541l0.0029,-2.22551l0.21142,0.02332l0.21142,0.02221l0.03475,2.91071c0.03958,3.27719 0.04537,3.32494 0.53,3.95795c0.27514,0.35759 0.55221,0.55527 1.00305,0.70963c0.60337,0.20878 0.78487,-0.11327 0.3794,-0.67187c-0.44119,-0.60746 -0.46243,-0.83957 -0.43829,-4.43548c0.01641,-2.30547 0.01641,-2.30547 0.14578,-2.1711c0.27224,0.2843 0.32437,0.75072 0.32437,2.91294c0,2.68528 0.06661,2.9407 0.89106,3.40934c0.38519,0.21655 0.49332,0.24321 0.98664,0.24543c0.52518,0.00222 0.55703,-0.00666 0.57634,-0.16436c0.01641,-0.12771 -0.04827,-0.21433 -0.29348,-0.38647c-0.32148,-0.22766 -0.54448,-0.51862 -0.68447,-0.8851c-0.0531,-0.14104 -0.08882,-1.065 -0.11295,-2.96735c-0.03475,-2.65751 -0.04248,-2.77856 -0.18632,-3.19501c-0.19405,-0.55971 -0.49042,-1.0017 -0.86596,-1.29488c-0.09751,-0.0733 -0.19501,-0.13437 -0.32148,-0.17991c0.15543,-0.01777 0.30603,-0.03665 0.45181,-0.06108c1.51761,-0.2321 2.31985,-0.42534 2.96377,-0.71185c1.36218,-0.60302 2.28317,-1.60472 2.78228,-3.0251c0.04441,-0.1266 0.08882,-0.24654 0.12647,-0.34316l0.38423,0.03665c1.98003,0.19212 3.57777,0.46643 4.80672,0.82513c0.67385,0.19656 0.80225,0.21989 0.64489,0.11661c-0.14674,-0.0944 -1.43072,-0.42867 -2.29958,-0.59636l-0.00002,0.00003zm-5.80591,-0.03443c-0.22494,0.56859 -0.85245,1.29933 -1.35928,1.58585c-0.50008,0.2843 -1.28398,0.50085 -2.17215,0.60413c-0.60724,0.07107 -3.99385,0.09217 -4.55282,0.02887c-1.85067,-0.20878 -2.88751,-0.61857 -3.6521,-1.43925c-0.72405,-0.7796 -1.06194,-1.83794 -1.00305,-3.1406c0.03765,-0.81513 0.20853,-1.32709 0.65551,-1.94899c0.40643,-0.56637 0.8341,-0.91619 1.33804,-1.09388c0.42188,-0.14881 1.71648,-0.16214 3.45709,-0.03332c0.76942,0.05664 1.40562,0.05664 2.17408,0c1.82074,-0.13215 3.03618,-0.11772 3.48509,0.0422c0.70571,0.25098 1.34866,0.92619 1.73482,1.82572c0.17377,0.40201 0.20756,0.57304 0.23266,1.19383c0.03475,0.85511 -0.09364,1.76353 -0.33789,2.37544zm-9.18094,-3.67143c-1.03587,-0.20878 -1.62766,1.83127 -0.83314,2.87296c0.37747,0.49419 0.71246,0.57526 1.13145,0.27541c0.38809,-0.27874 0.59855,-0.79959 0.59855,-1.47479c0,-0.90064 -0.35623,-1.56252 -0.89685,-1.67358l-0.00001,0zm6.28764,0.12216c-1.03587,-0.20878 -1.62863,1.82905 -0.8341,2.87185c0.37844,0.49419 0.71246,0.57637 1.13241,0.2743c0.38712,-0.27763 0.59855,-0.79959 0.59855,-1.47479c0,-0.89731 -0.35623,-1.56141 -0.89685,-1.67136l-0.00001,0zm-2.78614,4.01126c-0.0222,0.08218 -0.13033,0.20434 -0.23942,0.26986c-0.2761,0.16325 -0.47498,0.10661 -0.76653,-0.19879c-0.18053,-0.18768 -0.26259,-0.28652 -0.31762,-0.08995c-0.05117,0.18213 0.27031,0.54749 0.51842,0.65966c0.22783,0.10439 0.39099,0.10772 0.63813,-0.01111c0.24521,-0.11772 0.45953,-0.43422 0.45953,-0.63967c0,-0.19101 -0.23845,-0.18213 -0.29252,0.00999l0.00001,0.00001zm-0.30603,-0.63856c0.15736,-0.15992 0.19308,-0.48864 0.04248,-0.66299s-0.45663,-0.1477 -0.57634,0.04775c-0.13902,0.22877 -0.06468,0.40312 0.03475,0.58858c0.15446,0.13771 0.36202,0.16547 0.49911,0.02665l0,0.00001z" id="svg_29" stroke="#000"/>
  <path fill="#08dddd" stroke-width="0" stroke-opacity="null" d="m39.21104,3.94868c-7.93322,0 -14.36425,3.79289 -14.36425,8.47092c0,1.59853 0.76028,3.09243 2.06833,4.3684l-2.06833,3.5658l5.75901,-1.16155c2.39983,1.06119 5.37327,1.69888 8.60524,1.69888c7.93321,0 14.36426,-3.79291 14.36426,-8.47153s-6.43105,-8.47092 -14.36426,-8.47092l0,0zm-2.35582,11.72399l-2.39887,1.88474l-6.59718,-5.1883l6.5962,-5.18951l2.39985,1.88905l-4.19735,3.30046l4.19735,3.30355l0,0.00001zm7.25512,1.88229l-2.39788,-1.88721l4.1985,-3.29984l-4.1985,-3.3011l2.39788,-1.88721l6.59719,5.1846l-6.59719,5.19075l0,0.00001z" id="svg_33" stroke="#000"/>
  <path fill="#2e5606" stroke="#000" stroke-width="0" stroke-dasharray="5,2,2,2,2,2" stroke-opacity="null" fill-opacity="null" d="m154.81614,-11.56876c-0.38522,0 -0.6975,0.23422 -0.6975,0.52311c0,0.09871 0.03692,0.19097 0.10043,0.26976l-0.10043,0.2202l0.27965,-0.07173c0.11653,0.06553 0.26092,0.10491 0.41785,0.10491c0.38522,0 0.6975,-0.23422 0.6975,-0.52314s-0.31228,-0.52311 -0.6975,-0.52311l0,0zm-0.11439,0.72399l-0.11648,0.11639l-0.32035,-0.32039l0.3203,-0.32047l0.11653,0.11665l-0.20381,0.20381l0.20381,0.204l0,0.00001zm0.35229,0.11624l-0.11644,-0.11654l0.20387,-0.20378l-0.20387,-0.20385l0.11644,-0.11654l0.32035,0.32017l-0.32035,0.32055l0,-0.00001z" id="svg_35"/>
  <path fill="#2e5606" stroke="#000" stroke-width="0" stroke-dasharray="5,2,2,2,2,2" stroke-opacity="null" fill-opacity="null" d="m70.8939,27.46058c-0.38522,0 -0.6975,0.23422 -0.6975,0.52311c0,0.09871 0.03692,0.19097 0.10043,0.26976l-0.10043,0.2202l0.27965,-0.07173c0.11653,0.06553 0.26092,0.10491 0.41785,0.10491c0.38522,0 0.6975,-0.23422 0.6975,-0.52314s-0.31228,-0.52311 -0.6975,-0.52311l0,0zm-0.11439,0.72399l-0.11648,0.11639l-0.32035,-0.32039l0.3203,-0.32047l0.11653,0.11665l-0.20381,0.20381l0.20381,0.204l0,0.00001zm0.35229,0.11624l-0.11644,-0.11654l0.20387,-0.20378l-0.20387,-0.20385l0.11644,-0.11654l0.32035,0.32017l-0.32035,0.32055l0,-0.00001z" id="svg_36"/>
  <path fill="#2e5606" stroke="#000" stroke-width="0" stroke-dasharray="5,2,2,2,2,2" stroke-opacity="null" fill-opacity="null" d="m76.9407,18.482c-0.38522,0 -0.6975,0.23422 -0.6975,0.52311c0,0.09871 0.03692,0.19097 0.10043,0.26976l-0.10043,0.2202l0.27965,-0.07173c0.11653,0.06553 0.26092,0.10491 0.41785,0.10491c0.38522,0 0.6975,-0.23422 0.6975,-0.52314s-0.31228,-0.52311 -0.6975,-0.52311l0,0zm-0.11439,0.72399l-0.11648,0.11639l-0.32035,-0.32039l0.3203,-0.32047l0.11653,0.11665l-0.20381,0.20381l0.20381,0.204l0,0.00001zm0.35229,0.11624l-0.11644,-0.11654l0.20387,-0.20378l-0.20387,-0.20385l0.11644,-0.11654l0.32035,0.32017l-0.32035,0.32055l0,-0.00001z" id="svg_37"/>
  <path fill="#2e5606" stroke="#000" stroke-width="0" stroke-dasharray="5,2,2,2,2,2" stroke-opacity="null" fill-opacity="null" d="m142.35608,23.61262c-0.38522,0 -0.6975,0.23422 -0.6975,0.52311c0,0.09871 0.03692,0.19097 0.10043,0.26976l-0.10043,0.2202l0.27965,-0.07173c0.11653,0.06553 0.26092,0.10491 0.41785,0.10491c0.38522,0 0.6975,-0.23422 0.6975,-0.52314s-0.31228,-0.52311 -0.6975,-0.52311l0,0zm-0.11439,0.72399l-0.11648,0.11639l-0.32035,-0.32039l0.3203,-0.32047l0.11653,0.11665l-0.20381,0.20381l0.20381,0.204l0,0.00001zm0.35229,0.11624l-0.11644,-0.11654l0.20387,-0.20378l-0.20387,-0.20385l0.11644,-0.11654l0.32035,0.32017l-0.32035,0.32055l0,-0.00001z" id="svg_38"/>
 </g>
</svg>